<?xml version="1.0" encoding="utf-8"?>
<!-- Generator: Adobe Illustrator 17.0.2, SVG Export Plug-In . SVG Version: 6.00 Build 0)  -->
<!DOCTYPE svg PUBLIC "-//W3C//DTD SVG 1.1//EN" "http://www.w3.org/Graphics/SVG/1.1/DTD/svg11.dtd">
<svg version="1.1" id="Layer_1" xmlns="http://www.w3.org/2000/svg" xmlns:xlink="http://www.w3.org/1999/xlink" x="0px" y="0px"
	 width="2048px" height="2048px" viewBox="0 0 2048 2048" enable-background="new 0 0 2048 2048" xml:space="preserve">
<path fill="#009900" d="M1152,672v448c0,9.333-3,17-9,23s-13.667,9-23,9H800c-9.333,0-17-3-23-9s-9-13.667-9-23v-64
	c0-9.333,3-17,9-23s13.667-9,23-9h224V672c0-9.333,3-17,9-23s13.667-9,23-9h64c9.333,0,17,3,23,9S1152,662.667,1152,672z M1568,1024
	c0-98.667-24.333-189.667-73-273s-114.667-149.333-198-198s-174.333-73-273-73s-189.667,24.333-273,73S601.667,667.667,553,751
	s-73,174.333-73,273s24.333,189.667,73,273s114.667,149.333,198,198s174.333,73,273,73s189.667-24.333,273-73
	s149.333-114.667,198-198S1568,1122.667,1568,1024z M1792,1024c0,139.333-34.333,267.833-103,385.5s-161.833,210.833-279.5,279.5
	s-246.167,103-385.5,103s-267.833-34.333-385.5-103S427.667,1527.167,359,1409.5S256,1163.333,256,1024s34.333-267.833,103-385.5
	S520.833,427.667,638.5,359S884.667,256,1024,256s267.833,34.333,385.5,103s210.833,161.833,279.5,279.5S1792,884.667,1792,1024z"/>
</svg>
